<svg xmlns="http://www.w3.org/2000/svg" fill="#880e4f" height="1024" width="1024"><path d="M576 192c-35.3 0-64 28.7-64 64s28.7 64 64 64 64-28.7 64-64S611.3 192 576 192zM896 384L768 512v-64c0-30.6-21.5-56.2-50.2-62.5C749 351.4 768 305.9 768 256 768 150 682 64 576 64c-101.1 0-184 78.2-191.4 177.4C350.5 210.7 305.4 192 256 192c-106 0-192 86-192 192C64 490 150 576 256 576h-64v128h64v128c0 35.3 28.7 64 64 64h384c35.3 0 64-28.7 64-64v-64l128 128h64V384H896zM256 320c-35.3 0-64 28.7-64 64s28.7 64 64 64v64c-70.7 0-128-57.3-128-128C128 313.3 185.3 256 256 256s128 57.3 128 128h-64C320 348.7 291.3 320 256 320zM576 704H448V576h128V704zM704 594.8c-33.5-33.5-70.3-70.3-73.4-73.4C624.8 515.6 616.8 512 608 512H416c-17.7 0-32 14.3-32 32v192c0 8.3 3.2 15.9 8.4 21.6 0.5 0.6 39.1 39.2 74.4 74.4H352c-17.7 0-32-14.3-32-32V480c0-17.7 14.3-32 32-32h320c17.7 0 32 14.3 32 32V594.8zM576 384c-70.7 0-128-57.3-128-128C448 185.3 505.3 128 576 128s128 57.3 128 128C704 326.7 646.7 384 576 384zM896 704l-64-64 0.1-128.1L896 448V704z"/></svg>
